<svg width="24" height="24" viewBox="0 0 24 24" fill="none" xmlns="http://www.w3.org/2000/svg">
<path fill-rule="evenodd" clip-rule="evenodd" d="M19.1477 4.85225C19.3674 5.07192 19.3674 5.42808 19.1477 5.64775L5.64775 19.1477C5.42808 19.3674 5.07192 19.3674 4.85225 19.1477C4.63258 18.9281 4.63258 18.5719 4.85225 18.3523L18.3523 4.85225C18.5719 4.63258 18.9281 4.63258 19.1477 4.85225Z" fill="#241E17"/>
<path fill-rule="evenodd" clip-rule="evenodd" d="M4.85225 4.85225C5.07192 4.63258 5.42808 4.63258 5.64775 4.85225L19.1477 18.3523C19.3674 18.5719 19.3674 18.9281 19.1477 19.1477C18.9281 19.3674 18.5719 19.3674 18.3523 19.1477L4.85225 5.64775C4.63258 5.42808 4.63258 5.07192 4.85225 4.85225Z" fill="#241E17"/>
</svg>
