<svg width="47" height="22" viewBox="0 0 47 22" fill="none" xmlns="http://www.w3.org/2000/svg">
<path fill-rule="evenodd" clip-rule="evenodd" d="M4.37439 3.96875C4.33295 3.96875 4.29321 3.98521 4.2639 4.01451C4.2346 4.04382 4.21814 4.08356 4.21814 4.125V17.875C4.21814 17.9164 4.2346 17.9562 4.2639 17.9855C4.29321 18.0148 4.33295 18.0313 4.37439 18.0313H15.625C15.6455 18.0313 15.6658 18.0272 15.6848 18.0194C15.7038 18.0115 15.721 18 15.7355 17.9855C15.75 17.971 15.7615 17.9538 15.7694 17.9348C15.7772 17.9158 15.7812 17.8955 15.7812 17.875V8.06916L11.6808 3.96875H4.37439ZM3.60099 3.3516C3.80611 3.14648 4.08431 3.03125 4.37439 3.03125H11.875C11.9993 3.03125 12.1185 3.08064 12.2065 3.16854L16.5815 7.54354C16.6694 7.63145 16.7188 7.75068 16.7188 7.875V17.875C16.7188 18.0186 16.6905 18.1609 16.6355 18.2936C16.5805 18.4263 16.5 18.5468 16.3984 18.6484C16.2968 18.75 16.1763 18.8305 16.0436 18.8855C15.9109 18.9405 15.7686 18.9688 15.625 18.9688H4.37439C4.08431 18.9688 3.80611 18.8535 3.60099 18.6484C3.39587 18.4433 3.28064 18.1651 3.28064 17.875V4.125C3.28064 3.83492 3.39587 3.55672 3.60099 3.3516Z" fill="#E6B40F"/>
<path fill-rule="evenodd" clip-rule="evenodd" d="M11.875 3.03125C12.1339 3.03125 12.3438 3.24112 12.3438 3.5V7.40625H16.2506C16.5095 7.40625 16.7194 7.61612 16.7194 7.875C16.7194 8.13388 16.5095 8.34375 16.2506 8.34375H11.875C11.6161 8.34375 11.4062 8.13388 11.4062 7.875V3.5C11.4062 3.24112 11.6161 3.03125 11.875 3.03125Z" fill="#E6B40F"/>
<path fill-rule="evenodd" clip-rule="evenodd" d="M7.03125 11.625C7.03125 11.3661 7.24112 11.1562 7.5 11.1562H12.5C12.7589 11.1562 12.9688 11.3661 12.9688 11.625C12.9688 11.8839 12.7589 12.0938 12.5 12.0938H7.5C7.24112 12.0938 7.03125 11.8839 7.03125 11.625Z" fill="#E6B40F"/>
<path fill-rule="evenodd" clip-rule="evenodd" d="M7.03125 14.125C7.03125 13.8661 7.24112 13.6562 7.5 13.6562H12.5C12.7589 13.6562 12.9688 13.8661 12.9688 14.125C12.9688 14.3839 12.7589 14.5938 12.5 14.5938H7.5C7.24112 14.5938 7.03125 14.3839 7.03125 14.125Z" fill="#E6B40F"/>
<path d="M33.5664 11.2422H28.5625V9.7793H32.1172V5.24023H31.0508V6.64844H25.0352V5.24023H23.9688V9.7793H27.4961V11.2422H22.4922V12.1309H33.5664V11.2422ZM23.7227 14.1953H31.1191V17.1074H32.1992V13.334H23.7227V14.1953ZM25.0352 8.91797V7.46875H31.0508V8.91797H25.0352ZM38.666 8.2207V6.00586H37.6133V8.2207C37.5996 10.4424 36.1914 12.7734 34.4141 13.6484L35.0977 14.5098C36.4648 13.7783 37.6133 12.2402 38.1533 10.4492C38.6934 12.1377 39.8145 13.5801 41.1543 14.2773L41.8105 13.416C40.0811 12.5684 38.666 10.3604 38.666 8.2207ZM42.9316 17.1074H43.998V10.8184H46.0352V9.88867H43.998V4.95312H42.9316V17.1074Z" fill="#E6B40F"/>
</svg>
