<svg width="321" height="225" viewBox="0 0 321 225" fill="none" xmlns="http://www.w3.org/2000/svg">
<rect width="321" height="224.7" rx="8" fill="#FFD54A"/>
<path fill-rule="evenodd" clip-rule="evenodd" d="M127.299 39.8762C127.299 31.6813 133.941 25.0381 142.135 25.0381H178.654C186.848 25.0381 193.49 31.6813 193.49 39.8762V122.056C193.49 130.251 186.848 136.894 178.654 136.894H142.135C134.794 136.894 128.698 132.619 127.509 125.345C127.272 123.893 128.491 122.691 129.962 122.691V122.691C131.432 122.691 132.578 123.91 133.007 125.317C134.164 129.114 137.813 131.568 142.135 131.568H178.654C183.907 131.568 188.164 127.309 188.164 122.056V39.8762C188.164 34.6231 183.907 30.3646 178.654 30.3646H142.135C136.882 30.3646 132.625 34.6231 132.625 39.8762L132.625 59.2762C132.625 60.7469 131.432 61.9391 129.962 61.9391V61.9391C128.491 61.9391 127.299 60.7469 127.299 59.2762L127.299 39.8762Z" fill="#391A15"/>
<path fill-rule="evenodd" clip-rule="evenodd" d="M154.227 37.3594C154.227 36.0987 155.248 35.0767 156.509 35.0767H164.28C165.54 35.0767 166.562 36.0987 166.562 37.3594C166.562 38.6202 165.54 39.6422 164.28 39.6422H156.509C155.248 39.6422 154.227 38.6202 154.227 37.3594Z" fill="#391A15"/>
<path d="M164.826 123.368C164.826 125.821 162.842 127.81 160.394 127.81C157.947 127.81 155.963 125.821 155.963 123.368C155.963 120.914 157.947 118.925 160.394 118.925C162.842 118.925 164.826 120.914 164.826 123.368Z" fill="#391A15"/>
<path fill-rule="evenodd" clip-rule="evenodd" d="M166.929 77.458C166.856 75.9889 165.607 74.8565 164.138 74.9288L155.863 75.3357C154.91 73.3253 153.603 71.4407 151.942 69.7756C150.281 68.1105 148.4 66.7991 146.392 65.8414L146.818 57.5656C146.894 56.0967 145.765 54.8445 144.296 54.7688C142.827 54.6931 141.575 55.8226 141.5 57.2915L141.145 64.1811C136.597 63.4084 131.834 64.2121 127.735 66.5932C121.013 60.3487 110.501 60.4897 103.951 67.0253C97.4159 73.5459 97.2359 84.026 103.42 90.7646C99.1557 97.8586 99.6778 107.028 104.992 113.615L100.168 118.428C99.1271 119.467 99.1251 121.153 100.164 122.194C101.202 123.236 102.889 123.238 103.93 122.199L108.854 117.286C115.357 122.002 124.06 122.322 130.863 118.242C137.595 124.141 147.842 123.887 154.271 117.472C160.716 111.041 160.98 100.76 155.055 94.0138C157.455 89.915 158.273 85.1448 157.51 80.5876L164.4 80.2488C165.869 80.1766 167.001 78.9271 166.929 77.458ZM107.712 70.7962C112.02 66.4976 118.814 66.2107 123.454 69.93L106.809 86.5382C103.101 81.8887 103.404 75.0947 107.712 70.7962ZM110.186 111.439C114.703 115.968 121.44 116.932 126.903 114.328L107.337 94.7131C104.72 100.17 105.669 106.911 110.186 111.439ZM110.519 90.3608L131.262 111.156L134.39 108.035L113.647 87.2398L110.519 90.3608ZM150.51 113.701C146.308 117.893 139.742 118.27 135.115 114.835L151.68 98.3068C155.104 102.942 154.712 109.508 150.51 113.701ZM148.172 73.5375C152.624 78.0014 153.609 84.6147 151.13 90.0293L131.689 70.54C137.109 68.0732 143.719 69.0737 148.172 73.5375ZM148.011 94.4442L127.268 73.649L124.14 76.77L144.883 97.5651L148.011 94.4442ZM138.16 104.273L141.113 101.327L120.369 80.5319L117.417 83.4778L138.16 104.273Z" fill="white"/>
<path fill-rule="evenodd" clip-rule="evenodd" d="M122.39 158.792C121.115 158.794 120.084 159.832 120.086 161.11C120.089 162.387 121.124 163.421 122.398 163.419L128.135 163.408V169.796L122.389 169.807C121.009 169.809 119.891 170.933 119.894 172.318C119.897 173.702 121.018 174.822 122.399 174.819L136.047 174.794V178.707L122.389 178.732C121.009 178.735 119.891 179.859 119.894 181.243C119.897 182.627 121.018 183.747 122.399 183.745L154.705 183.684C156.086 183.682 157.203 182.558 157.2 181.174C157.198 179.79 156.076 178.67 154.696 178.672L141.047 178.698V174.784L154.705 174.759C156.086 174.756 157.203 173.632 157.2 172.248C157.198 170.864 156.076 169.744 154.696 169.747L148.959 169.757V163.369L154.705 163.358C155.979 163.356 157.01 162.318 157.008 161.041C157.005 159.763 155.97 158.729 154.696 158.732L122.39 158.792ZM143.96 163.378V169.767L133.135 169.787V163.399L143.96 163.378Z" fill="#391A15"/>
<path fill-rule="evenodd" clip-rule="evenodd" d="M122.394 186.083C123.775 186.083 124.894 187.205 124.894 188.589V191.082C124.894 191.634 125.342 192.082 125.894 192.082H155.205C156.585 192.082 157.705 193.204 157.705 194.588C157.705 195.972 156.585 197.094 155.205 197.094H123.932C121.702 197.094 119.894 195.282 119.894 193.046V188.589C119.894 187.205 121.013 186.083 122.394 186.083Z" fill="#391A15"/>
<path fill-rule="evenodd" clip-rule="evenodd" d="M170.598 161.122C170.598 159.738 169.479 158.616 168.099 158.616C166.718 158.616 165.599 159.738 165.599 161.122V172.313V189.257C165.599 191.493 167.407 193.305 169.637 193.305H184.552C186.783 193.305 188.591 191.493 188.591 189.257V161.122C188.591 159.738 187.471 158.616 186.091 158.616C184.71 158.616 183.591 159.738 183.591 161.122V169.807H170.598V161.122ZM170.598 174.819V187.293C170.598 187.845 171.046 188.293 171.598 188.293H182.591C183.143 188.293 183.591 187.845 183.591 187.293V174.819H170.598Z" fill="#391A15"/>
<path fill-rule="evenodd" clip-rule="evenodd" d="M198.446 158.616C199.827 158.616 200.946 159.738 200.946 161.122V194.588C200.946 195.972 199.827 197.094 198.446 197.094C197.066 197.094 195.946 195.972 195.946 194.588V161.122C195.946 159.738 197.066 158.616 198.446 158.616Z" fill="#391A15"/>
</svg>
