<svg width="17" height="16" viewBox="0 0 17 16" fill="none" xmlns="http://www.w3.org/2000/svg">
<path d="M16.5326 6.03111C16.4587 5.79881 16.3164 5.5942 16.1243 5.44399C15.9323 5.29377 15.6995 5.20492 15.4562 5.18903L11.0566 4.88114L9.4245 0.771468C9.33618 0.544266 9.18128 0.349043 8.98011 0.211382C8.77893 0.0737204 8.54087 4.15289e-05 8.2971 0H8.29594C8.05256 0.000434114 7.81496 0.0743008 7.61423 0.211942C7.4135 0.349582 7.25898 0.544591 7.17086 0.771468L5.51449 4.90486L1.13918 5.18903C0.895895 5.20492 0.66305 5.29377 0.471023 5.44399C0.278996 5.5942 0.136704 5.79881 0.0627104 6.03111C-0.0153476 6.26671 -0.0206577 6.52035 0.0474715 6.75901C0.115601 6.99767 0.254012 7.21028 0.444682 7.36917L3.81067 10.2143L2.80944 14.1526C2.74042 14.4179 2.75312 14.6979 2.84585 14.9558C2.93858 15.2138 3.10703 15.4377 3.32915 15.5983C3.5436 15.7544 3.80005 15.8422 4.06512 15.8505C4.3302 15.8587 4.59162 15.787 4.81537 15.6446L8.28784 13.4448C8.29247 13.4414 8.2971 13.439 8.30752 13.4448L12.0439 15.8119C12.2467 15.9415 12.484 16.0069 12.7246 15.9994C12.9652 15.992 13.1979 15.9121 13.3924 15.7702C13.5936 15.6247 13.7463 15.4219 13.8303 15.1882C13.9144 14.9545 13.926 14.7009 13.8635 14.4605L12.7997 10.1581L16.1507 7.36917C16.3413 7.21028 16.4798 6.99767 16.5479 6.75901C16.616 6.52035 16.6107 6.26671 16.5326 6.03111Z" fill="#FFDB66"/>
</svg>
