<svg width="24" height="24" viewBox="0 0 24 24" fill="none" xmlns="http://www.w3.org/2000/svg">
<path fill-rule="evenodd" clip-rule="evenodd" d="M12 4.125C7.65076 4.125 4.125 7.65076 4.125 12C4.125 16.3492 7.65076 19.875 12 19.875C16.3492 19.875 19.875 16.3492 19.875 12C19.875 7.65076 16.3492 4.125 12 4.125ZM2.625 12C2.625 6.82233 6.82233 2.625 12 2.625C17.1777 2.625 21.375 6.82233 21.375 12C21.375 17.1777 17.1777 21.375 12 21.375C6.82233 21.375 2.625 17.1777 2.625 12Z" fill="#575757"/>
<path fill-rule="evenodd" clip-rule="evenodd" d="M12 2.625C12.4142 2.625 12.75 2.96079 12.75 3.375V7.125C12.75 7.53921 12.4142 7.875 12 7.875C11.5858 7.875 11.25 7.53921 11.25 7.125V3.375C11.25 2.96079 11.5858 2.625 12 2.625Z" fill="#575757"/>
<path fill-rule="evenodd" clip-rule="evenodd" d="M2.625 12C2.625 11.5858 2.96079 11.25 3.375 11.25H7.125C7.53921 11.25 7.875 11.5858 7.875 12C7.875 12.4142 7.53921 12.75 7.125 12.75H3.375C2.96079 12.75 2.625 12.4142 2.625 12Z" fill="#575757"/>
<path fill-rule="evenodd" clip-rule="evenodd" d="M12 16.125C12.4142 16.125 12.75 16.4608 12.75 16.875V20.625C12.75 21.0392 12.4142 21.375 12 21.375C11.5858 21.375 11.25 21.0392 11.25 20.625V16.875C11.25 16.4608 11.5858 16.125 12 16.125Z" fill="#575757"/>
<path fill-rule="evenodd" clip-rule="evenodd" d="M16.125 12C16.125 11.5858 16.4608 11.25 16.875 11.25H20.625C21.0392 11.25 21.375 11.5858 21.375 12C21.375 12.4142 21.0392 12.75 20.625 12.75H16.875C16.4608 12.75 16.125 12.4142 16.125 12Z" fill="#575757"/>
<circle cx="12" cy="12" r="0.75" fill="#575757"/>
</svg>
